<svg width="256" height="256" viewBox="0 0 256 256" fill="none" xmlns="http://www.w3.org/2000/svg">
<g clip-path="url(#clip0_42_2)">
<circle cx="128" cy="128" r="128" fill="#FFEA00"/>
<path d="M95 220C94.4167 208.417 93.7917 196.875 93.125 185.375C92.5417 173.792 91.9167 162.25 91.25 150.75C90.6667 139.167 90.0833 127.583 89.5 116C98.75 115.667 105.125 114.792 108.625 113.375C112.208 111.875 114 109.5 114 106.25C114 103.25 112.083 101.333 108.25 100.5C104.5 99.6667 98 99.5833 88.75 100.25C88.5 98.0833 88.2917 95.9167 88.125 93.75C88.0417 91.5 88 89.3333 88 87.25C93.3333 86.8333 97.625 86.2083 100.875 85.375C104.125 84.4583 106.5 83.2917 108 81.875C109.5 80.375 110.25 78.5833 110.25 76.5C110.25 73.1667 108.083 71.0417 103.75 70.125C99.4167 69.2083 93.75 69.0833 86.75 69.75C86.5 68.0833 86.3333 66.4583 86.25 64.875C86.25 63.2083 86.25 61.5833 86.25 60C86.25 54.75 87.5 51.0833 90 49C92.5833 46.9167 96.75 45.75 102.5 45.5C114.75 45 126.667 45 138.25 45.5C149.833 45.9167 160.667 46.8333 170.75 48.25C176.667 49 180.958 50.625 183.625 53.125C186.375 55.625 187.75 58.5833 187.75 62C187.75 66.75 186.208 70.2917 183.125 72.625C180.125 74.875 176.583 76.8333 172.5 78.5C166.25 81 160.417 82.9583 155 84.375C149.583 85.7083 144.417 87.4167 139.5 89.5C137.417 90.3333 135.625 91.1667 134.125 92C132.708 92.8333 131.5 93.75 130.5 94.75C129.5 95.8333 128.708 97.0833 128.125 98.5C127.625 99.9167 127.25 101.75 127 104C126.75 106.083 126.583 108.167 126.5 110.25C126.5 112.25 126.5 114.333 126.5 116.5C126.5 119.333 127.042 121.375 128.125 122.625C129.208 123.792 131.667 124.25 135.5 124C141 123.583 146.5 122.958 152 122.125C157.5 121.292 163 120.75 168.5 120.5C172.083 120.333 174.75 121.167 176.5 123C178.25 124.833 179.125 126.917 179.125 129.25C179.125 131.417 178.375 133.542 176.875 135.625C175.375 137.625 173.167 138.833 170.25 139.25C163.75 140 157.5 140.458 151.5 140.625C145.5 140.708 139.5 141.167 133.5 142C130 142.333 128.083 143.583 127.75 145.75C127.417 147.833 128.667 149.458 131.5 150.625C135.5 152.292 139.458 153.625 143.375 154.625C147.292 155.625 151.25 157 155.25 158.75C157.417 159.667 159 160.958 160 162.625C161 164.292 161.5 166.042 161.5 167.875C161.5 170.875 160.208 173.5 157.625 175.75C155.125 177.917 151.667 178.25 147.25 176.75C143.667 175.5 140.292 174.083 137.125 172.5C134.042 170.917 130.75 169.583 127.25 168.5C123.75 167.333 121.083 167.25 119.25 168.25C117.5 169.167 116.5 171.333 116.25 174.75C115.667 182 115.375 189.5 115.375 197.25C115.458 205 115.167 212.583 114.5 220C114.333 222.167 113.792 223.917 112.875 225.25C111.958 226.667 110.792 227.667 109.375 228.25C107.958 228.917 106.417 229.25 104.75 229.25C102.167 229.25 99.9167 228.5 98 227C96.0833 225.583 95.0833 223.25 95 220ZM137 77.5C140 77.5 142.375 76.4583 144.125 74.375C145.875 72.2917 146.75 69.5833 146.75 66.25C146.75 63.5833 145.833 61.375 144 59.625C142.25 57.875 140.25 57 138 57C133.75 57 130.708 57.875 128.875 59.625C127.125 61.2917 126.25 63.75 126.25 67C126.25 70.0833 127.125 72.625 128.875 74.625C130.708 76.5417 133.417 77.5 137 77.5Z" fill="white"/>
</g>
<defs>
<clipPath id="clip0_42_2">
<rect width="256" height="256" fill="white"/>
</clipPath>
</defs>
</svg>
